# xmcd
#
# Track frame offsets:
#	150
#	14520
#	31607
#	45967
#	56985
#	68752
#	81260
#	95395
#	109479
#	118897
#	133845
#	146807
#	160327
#	171482
#	189445
#	205660
#	215055
#
# Disc length: 3042 seconds
#
# Revision: 1
# Processed by: cddbd v1.4PL0 Copyright (c) Steve Scherf et al.
# Submitted via: audiograbber 1.80
#
DISCID=fe0be011
DTITLE=Kathleen Vandenhoudt, Pascale Michiels, Jan De Bruyn, Pieter Van Bogaert
DTITLE=Various Artist - About Queens Of The Blues
DYEAR=1900
DGENRE=
TTITLE0=Crazy Blues
TTITLE1=Me And My Gin
TTITLE2=Weary Money Blues
TTITLE3=Ugly Papa Blues
TTITLE4=Me And My Chauffeur Blues
TTITLE5=Alley Boogie
TTITLE6=Decent Woman Blues
TTITLE7=I Didn't Like It The First Time
TTITLE8=I Miss You
TTITLE9=Business Woman Blues
TTITLE10=Strange Things Happening Everyday
TTITLE11=Fat Mama Blues
TTITLE12=Mama, He Treats Your Daughter Mean
TTITLE13=Trouble In Mind
TTITLE14=Should I Ever Love Again
TTITLE15=Turn The Lamps Down Low
TTITLE16=Women Be Wise
EXTD=
EXTT0=
EXTT1=
EXTT2=
EXTT3=
EXTT4=
EXTT5=
EXTT6=
EXTT7=
EXTT8=
EXTT9=
EXTT10=
EXTT11=
EXTT12=
EXTT13=
EXTT14=
EXTT15=
EXTT16=
PLAYORDER=
